#!OML:ASF F:\VICON\USERDATA\Patient Classification 1\PLAYGROUND\JustinFriday\JustinFriday.ASF
:FULLY-SPECIFIED
:DEGREES
1
root 17.3022 17.8576 14.0149 34.0548 -83.0689 -30.3006
lowerback 5.32294 -0.0110969 0.470671
upperback 0.909595 0.026199 4.96015
thorax -2.05142 -0.0189941 4.87159
lowerneck -5.74023 -3.76107 -4.06544
upperneck 3.03672 -5.07949 7.21555
head 2.31566 -2.40792 2.87151
rclavicle -1.35174e-014 6.36111e-015
rhumerus -30.2566 -52.4814 -61.5063
rradius 10.3625
rwrist 18.1207
rhand -17.3208 -33.0727
rfingers 7.12502
rthumb 8.9258 -62.8639
lclavicle -1.35174e-014 6.36111e-015
lhumerus -24.1261 20.2996 81.1997
lradius 15.9136
lwrist -14.3066
lhand -18.9452 -3.6609
lfingers 7.12502
lthumb 7.35805 26.1911
rfemur -10.7256 -1.33762 25.0718
rtibia 32.7576
rfoot -23.3415 -19.7255
rtoes 18.1158
lfemur -10.6622 -2.44643 -11.5319
ltibia 29.8502
lfoot -20.3107 2.33432
ltoes -19.2945
2
root 17.3227 17.8642 14.0504 32.9957 -82.8686 -29.2251
lowerback 5.44064 0.0434358 0.519811
upperback 0.886866 0.106864 4.97601
thorax -2.14731 0.0220388 4.85578
lowerneck -5.99402 -3.86079 -3.97948
upperneck 3.19819 -5.20118 6.88606
head 2.40724 -2.46775 2.73458
rclavicle 6.75868e-015 2.14687e-014
rhumerus -32.5874 -55.5436 -57.7101
rradius 7.72143
rwrist 21.498
rhand -17.006 -37.3777
rfingers 7.12502
rthumb 9.2296 -67.1557
lclavicle 6.75868e-015 2.14687e-014
lhumerus -24.5417 21.2818 80.3001
lradius 15.3523
lwrist -15.7229
lhand -18.137 -3.49903
lfingers 7.12502
lthumb 8.13809 26.3243
rfemur -10.7394 -1.63552 24.9078
rtibia 32.6585
rfoot -23.1802 -19.6516
rtoes 18.1275
lfemur -10.9075 -2.25594 -11.661
ltibia 30.0247
lfoot -20.406 1.96698
ltoes -19.2402
3
root 17.3517 17.8701 14.0877 34.1537 -82.815 -30.1704
lowerback 5.48299 0.200488 0.823992
upperback 0.805979 0.338884 4.98232
thorax -2.27147 0.1371 4.67301
lowerneck -6.26834 -4.11376 -4.18505
upperneck 3.34977 -5.53524 7.07625
head 2.54579 -2.62504 2.81832
rclavicle -3.97569e-015 3.65764e-014
rhumerus -37.934 -58.1356 -52.2206
rradius 8.52657
rwrist 25.0167
rhand -16.9851 -42.4883
rfingers 7.12502
rthumb 9.24975 -72.2654
lclavicle -3.97569e-015 3.65764e-014
lhumerus -25.0055 23.7974 78.8675
lradius 14.6406
lwrist -18.6936
lhand -17.2425 -3.5111
lfingers 7.12502
lthumb 9.00133 26.2769
rfemur -11.073 -1.6461 24.8967
rtibia 32.619
rfoot -22.9397 -19.5441
rtoes 18.3708
lfemur -11.338 -2.13556 -11.6748
ltibia 30.1514
lfoot -20.3073 1.99293
ltoes -19.4049
4
root 17.3809 17.8743 14.1226 35.5916 -82.7598 -31.4194
lowerback 5.44576 0.350343 1.07221
upperback 0.828791 0.548198 5.08773
thorax -2.24146 0.237378 4.62694
lowerneck -6.65019 -4.33316 -4.8026
upperneck 3.51519 -5.81029 7.65786
head 2.74349 -2.74616 3.11585
rclavicle 5.56597e-015 -3.49861e-014
rhumerus -43.9443 -60.1315 -45.5254
rradius 8.85714
rwrist 27.6103
rhand -21.885 -45.6719
rfingers 7.12502
rthumb 4.51983 -75.6037
lclavicle 5.56597e-015 -3.49861e-014
lhumerus -25.0782 19.6003 80.0022
lradius 15.2367
lwrist -14.7098
lhand -16.5544 -2.62739
lfingers 7.12502
lthumb 9.6653 27.1309
rfemur -11.3949 -1.23161 24.9727
rtibia 32.6251
rfoot -22.9036 -19.8066
rtoes 18.2109
lfemur -11.7241 -1.87014 -11.6389
ltibia 30.2246
lfoot -20.2227 1.96163
ltoes -19.8479
5
root 17.4083 17.8825 14.1624 35.6059 -82.6879 -31.2952
lowerback 5.41673 0.459216 1.18544
upperback 0.901065 0.692509 5.20382
thorax -2.16114 0.305596 4.67379
lowerneck -6.9752 -4.45153 -5.14739
upperneck 3.49426 -5.92774 7.72726
head 2.82427 -2.80073 3.19434
rclavicle 1.59028e-015 -1.35174e-014
rhumerus -51.5258 -61.5089 -37.7938
rradius 10.1963
rwrist 29.5502
rhand -29.437 -47.2264
rfingers 7.12502
rthumb -2.77377 -77.1881
lclavicle 1.59028e-015 -1.35174e-014
lhumerus -25.3128 19.1962 79.9976
lradius 15.3067
lwrist -14.7014
lhand -15.7287 -2.47911
lfingers 7.12502
lthumb 10.4619 27.2406
rfemur -11.6936 -1.15611 24.8563
rtibia 32.7304
rfoot -22.8703 -19.9313
rtoes 17.7683
lfemur -12.0019 -1.79868 -11.7673
ltibia 30.1747
lfoot -20.0348 1.83445
ltoes -19.7639
6
root 17.4346 17.8917 14.2085 33.3432 -82.8517 -28.8876
lowerback 5.45058 0.607158 1.01022
upperback 0.935165 0.88099 5.18444
thorax -2.16107 0.401627 4.73902
lowerneck -7.17132 -4.58172 -5.32875
upperneck 3.30431 -6.05778 7.61298
head 2.80861 -2.86839 3.17809
rclavicle -2.70347e-014 -2.38542e-014
rhumerus -45.991 -57.0624 -44.4037
rradius 9.87197
rwrist 21.6876
rhand -35.7651 -50.9611
rfingers 7.12502
rthumb -8.88312 -80.7541
lclavicle -2.70347e-014 -2.38542e-014
lhumerus -25.7141 19.5062 79.7421
lradius 15.4438
lwrist -15.5492
lhand -14.8081 -2.33228
lfingers 7.12502
lthumb 11.3498 27.3406
rfemur -12.066 -2.00811 24.2231
rtibia 32.9074
rfoot -22.4099 -19.3203
rtoes 17.4769
lfemur -12.1824 -2.158 -12.3627
ltibia 30.0398
lfoot -19.7092 2.09885
ltoes -19.8906
7
root 17.4618 17.9032 14.2566 29.0262 -83.214 -24.4318
lowerback 5.57363 0.833275 0.585126
upperback 0.960962 1.16605 5.01816
thorax -2.23001 0.550806 4.78374
lowerneck -7.47237 -4.78083 -5.46131
upperneck 3.17402 -6.29422 7.64188
head 2.84587 -2.982 3.19451
rclavicle -4.96962e-015 3.81667e-014
rhumerus -43.9016 -51.8184 -48.2689
rradius 10.9314
rwrist 16.2623
rhand -35.615 -44.8283
rfingers 7.12502
rthumb -8.73833 -74.6274
lclavicle -4.96962e-015 3.81667e-014
lhumerus -26.0065 19.017 79.6807
lradius 15.6353
lwrist -15.639
lhand -13.8968 -2.10008
lfingers 7.12502
lthumb 12.2286 27.5224
rfemur -12.4411 -2.46019 23.2834
rtibia 33.1558
rfoot -21.963 -19.1013
rtoes 16.7322
lfemur -12.2743 -2.5769 -13.3246
ltibia 29.8524
lfoot -19.362 2.55771
ltoes -20.1441
8
root 17.4888 17.9083 14.3002 27.7355 -83.2384 -23.144
lowerback 5.80884 1.04963 0.647871
upperback 1.03446 1.46224 4.95635
thorax -2.30597 0.698098 4.65774
lowerneck -7.64819 -5.0492 -5.26782
upperneck 2.80295 -6.63547 7.47086
head 2.75947 -3.15404 3.07442
rclavicle -1.66979e-014 -7.95139e-015
rhumerus -43.469 -49.8669 -48.5026
rradius 9.95008
rwrist 17.7694
rhand -33.2805 -48.4049
rfingers 7.12502
rthumb -6.48496 -78.2856
lclavicle -1.66979e-014 -7.95139e-015
lhumerus -26.1502 18.6767 79.5363
lradius 15.7315
lwrist -15.8052
lhand -13.1182 -1.84065
lfingers 7.12502
lthumb 12.9792 27.7356
rfemur -12.6635 -2.31934 22.9876
rtibia 33.5029
rfoot -21.7163 -19.6925
rtoes 14.7908
lfemur -12.2322 -2.60679 -13.6833
ltibia 29.5962
lfoot -19.1013 2.58097
ltoes -20.1596
9
root 17.5137 17.9031 14.3345 26.5388 -83.2163 -22.1615
lowerback 6.21099 1.20677 0.637131
upperback 1.16809 1.67637 4.96227
thorax -2.40977 0.803311 4.64795
lowerneck -7.63323 -5.27492 -5.1145
upperneck 2.29463 -6.91418 7.25387
head 2.58491 -3.30229 2.95456
rclavicle -4.77083e-015 0
rhumerus -45.0679 -47.446 -48.4406
rradius 12.2791
rwrist 18.4369
rhand -29.1045 -48.4794
rfingers 7.12502
rthumb -2.45261 -78.445
lclavicle -4.77083e-015 0
lhumerus -26.4811 18.4553 79.4234
lradius 16.1949
lwrist -15.7535
lhand -12.5056 -1.68036
lfingers 7.12502
lthumb 13.5697 27.8574
rfemur -12.6178 -2.19381 22.7727
rtibia 33.8327
rfoot -21.6165 -20.2155
rtoes 13.2474
lfemur -12.001 -2.40726 -13.9427
ltibia 29.4057
lfoot -18.9327 2.30633
ltoes -20.0278
10
root 17.547 17.8998 14.3687 19.6742 -83.4225 -15.4311
lowerback 6.71689 1.2917 -0.0830964
upperback 1.22695 1.75697 4.78958
thorax -2.65434 0.853961 4.86221
lowerneck -7.62887 -5.34725 -5.33077
upperneck 2.02962 -6.98398 7.37777
head 2.5166 -3.33902 3.03398
rclavicle 4.17448e-015 0
rhumerus -46.6067 -46.8108 -47.1191
rradius 12.3089
rwrist 20.8819
rhand -24.7385 -45.5757
rfingers 7.12502
rthumb 1.7641 -75.5482
lclavicle 4.17448e-015 0
lhumerus -27.0488 17.6216 79.4904
lradius 17.0064
lwrist -14.5935
lhand -11.878 -1.83402
lfingers 7.12502
lthumb 14.1746 27.6624
rfemur -12.6001 -2.00111 21.7696
rtibia 33.9991
rfoot -21.6421 -20.4558
rtoes 13.2341
lfemur -11.9953 -2.36304 -14.9711
ltibia 29.4989
lfoot -18.8303 2.00303
ltoes -19.3164
11
root 17.5835 17.8977 14.4077 19.4487 -83.1492 -15.1591
lowerback 6.97025 1.19586 0.121041
upperback 1.23929 1.64764 4.8167
thorax -2.76867 0.797051 4.78162
lowerneck -7.59471 -5.27242 -5.47775
upperneck 1.78298 -6.87006 7.57113
head 2.43649 -3.2827 3.13608
rclavicle 6.36111e-015 -4.77083e-015
rhumerus -46.5228 -44.5181 -48.0733
rradius 12.3655
rwrist 21.5295
rhand -22.2883 -42.0438
rfingers 7.12502
rthumb 4.13042 -71.9835
lclavicle 6.36111e-015 -4.77083e-015
lhumerus -27.6029 16.8929 79.379
lradius 17.7399
lwrist -13.1454
lhand -11.1845 -2.20867
lfingers 7.12502
lthumb 14.8428 27.2397
rfemur -12.8262 -1.91938 21.7083
rtibia 34.0929
rfoot -21.6582 -20.6402
rtoes 13.6934
lfemur -12.3532 -2.44355 -14.997
ltibia 29.7003
lfoot -18.8054 1.54915
ltoes -18.3422
12
root 17.6078 17.8926 14.448 29.0639 -82.349 -24.6528
lowerback 6.75637 1.04872 1.71645
upperback 1.34612 1.53824 5.16538
thorax -2.49616 0.716793 4.25513
lowerneck -7.64361 -5.22101 -5.18567
upperneck 1.40706 -6.8033 7.43953
head 2.29371 -3.25433 3.03949
rclavicle -1.21259e-014 -3.49861e-014
rhumerus -46.7613 -43.2163 -48.3484
rradius 12.1616
rwrist 22.4407
rhand -21.3422 -38.5354
rfingers 7.12502
rthumb 5.04389 -68.4553
lclavicle -1.21259e-014 -3.49861e-014
lhumerus -27.9422 16.7503 79.0826
lradius 18.3565
lwrist -12.1067
lhand -10.9818 -2.27839
lfingers 7.12502
lthumb 15.038 27.1555
rfemur -13.152 -2.40021 23.1245
rtibia 34.096
rfoot -21.2105 -20.7125
rtoes 12.7955
lfemur -12.9049 -2.358 -13.4866
ltibia 29.9974
lfoot -18.9561 0.936348
ltoes -17.6211
13
root 17.6113 17.8907 14.5029 29.1253 -82.4868 -24.7622
lowerback 6.50618 1.11524 1.99283
upperback 1.56433 1.61618 5.0838
thorax -2.12513 0.750708 4.00993
lowerneck -7.57297 -5.26968 -5.00701
upperneck 0.954908 -6.86488 7.38919
head 2.12286 -3.29239 2.98801
rclavicle 1.09332e-014 -2.8625e-014
rhumerus -48.2296 -43.3071 -46.8424
rradius 11.9549
rwrist 24.2058
rhand -20.2412 -34.7062
rfingers 7.12502
rthumb 6.10697 -64.5982
lclavicle 1.09332e-014 -2.8625e-014
lhumerus -28.4291 15.9653 79.1501
lradius 19.2553
lwrist -10.4729
lhand -11.2023 -2.19091
lfingers 7.12502
lthumb 14.8256 27.2587
rfemur -13.1178 -3.43743 22.7674
rtibia 34.0859
rfoot -20.5905 -20.057
rtoes 11.1394
lfemur -12.9346 -2.41723 -13.7818
ltibia 30.3264
lfoot -19.1987 1.12398
ltoes -17.6656
14
root 17.6227 17.8895 14.5515 26.9664 -82.4356 -22.7207
lowerback 6.58557 1.11253 1.95658
upperback 1.65296 1.60786 5.07631
thorax -2.07808 0.745698 4.02271
lowerneck -7.27648 -5.30445 -5.1235
upperneck 0.552216 -6.8932 7.41223
head 1.94365 -3.31693 3.02367
rclavicle 1.43125e-014 -6.36111e-015
rhumerus -47.9392 -40.905 -47.8998
rradius 11.9284
rwrist 23.3774
rhand -18.4649 -31.5516
rfingers 7.12502
rthumb 7.82166 -61.3869
lclavicle 1.43125e-014 -6.36111e-015
lhumerus -29.2216 15.1808 79.3088
lradius 20.2558
lwrist -9.01439
lhand -11.3013 -2.51337
lfingers 7.12502
lthumb 14.7303 26.9433
rfemur -12.9921 -4.25977 22.2639
rtibia 34.0744
rfoot -20.531 -19.4534
rtoes 10.8364
lfemur -13.0046 -2.04348 -14.2081
ltibia 30.6313
lfoot -19.4519 0.745033
ltoes -18.0298
15
root 17.6419 17.8806 14.5849 26.7403 -82.6992 -22.8489
lowerback 7.03324 1.18936 1.76759
upperback 1.78153 1.70886 5.14501
thorax -2.20817 0.79421 4.18771
lowerneck -7.05413 -5.23583 -5.18199
upperneck 0.389614 -6.79233 7.31566
head 1.84059 -3.27433 3.01222
rclavicle 2.38542e-014 1.27222e-014
rhumerus -47.9291 -39.0137 -48.3861
rradius 11.8324
rwrist 23.9654
rhand -16.3864 -29.1343
rfingers 7.12502
rthumb 9.8274 -58.885
lclavicle 2.38542e-014 1.27222e-014
lhumerus -30.0502 14.9451 79.133
lradius 21.1194
lwrist -7.98789
lhand -11.3242 -2.9103
lfingers 7.12502
lthumb 14.7082 26.548
rfemur -12.7333 -4.25455 21.9725
rtibia 34.2138
rfoot -20.5156 -19.2678
rtoes 10.215
lfemur -12.6992 -1.18166 -14.441
ltibia 30.7406
lfoot -19.6857 0.12262
ltoes -17.6934
